<?xml version="1.0" encoding="utf-8"?>
<!-- Generator: Adobe Illustrator 19.0.0, SVG Export Plug-In . SVG Version: 6.00 Build 0)  -->
<svg version="1.2" baseProfile="tiny" id="Layer_1" xmlns="http://www.w3.org/2000/svg" xmlns:xlink="http://www.w3.org/1999/xlink"
	 x="0px" y="0px" viewBox="0 0 29 22.5" xml:space="preserve">
<path id="XMLID_508_" fill="#FFFFFF" d="M28.7,12.4c0,0,0.1-0.1,0.1-0.2c0-0.1,0.1-0.1,0.1-0.2c0-0.1,0-0.1,0.1-0.2
	c0-0.1,0-0.1,0.1-0.2c0.1-0.3,0.1-0.5,0-0.8c0-0.1,0-0.1-0.1-0.2c0-0.1,0-0.1-0.1-0.2c0-0.1-0.1-0.1-0.1-0.2c0-0.1-0.1-0.1-0.1-0.2
	c-0.1-0.1-0.2-0.2-0.3-0.3l-9.3-9.3c-0.8-0.8-2-0.8-2.8,0c-0.8,0.8-0.8,2,0,2.8l5.9,5.9H2c-1.1,0-2,0.9-2,2s0.9,2,2,2h20.2l-5.9,5.9
	c-0.8,0.8-0.8,2,0,2.8c0.4,0.4,0.9,0.6,1.4,0.6s1-0.2,1.4-0.6l9.3-9.3C28.5,12.6,28.6,12.5,28.7,12.4z"/>
</svg>
