<?xml version="1.0" encoding="utf-8"?>
<!-- Generator: Adobe Illustrator 19.0.0, SVG Export Plug-In . SVG Version: 6.00 Build 0)  -->
<svg version="1.2" baseProfile="tiny" id="Layer_1" xmlns="http://www.w3.org/2000/svg" xmlns:xlink="http://www.w3.org/1999/xlink"
	 x="0px" y="0px" viewBox="0 0 29 22.5" xml:space="preserve">
<path id="XMLID_508_" fill="#FFFFFF" d="M0.3,12.4c0,0-0.1-0.1-0.1-0.2c0-0.1-0.1-0.1-0.1-0.2c0-0.1,0-0.1-0.1-0.2
	c0-0.1,0-0.1-0.1-0.2C0,11.4,0,11.1,0,10.9c0-0.1,0-0.1,0.1-0.2c0-0.1,0-0.1,0.1-0.2c0-0.1,0.1-0.1,0.1-0.2c0-0.1,0.1-0.1,0.1-0.2
	C0.4,10,0.5,9.9,0.6,9.9l9.3-9.3c0.8-0.8,2-0.8,2.8,0c0.8,0.8,0.8,2,0,2.8L6.8,9.3H27c1.1,0,2,0.9,2,2s-0.9,2-2,2H6.8l5.9,5.9
	c0.8,0.8,0.8,2,0,2.8c-0.4,0.4-0.9,0.6-1.4,0.6s-1-0.2-1.4-0.6l-9.3-9.3C0.5,12.6,0.4,12.5,0.3,12.4z"/>
</svg>
