<?xml version="1.0" encoding="UTF-8"?>
<svg width="16px" height="13px" viewBox="0 0 16 13" version="1.1" xmlns="http://www.w3.org/2000/svg" xmlns:xlink="http://www.w3.org/1999/xlink">
    <!-- Generator: Sketch 46.2 (44496) - http://www.bohemiancoding.com/sketch -->
    <title>dark-arrow-back</title>
    <desc>Created with Sketch.</desc>
    <defs></defs>
    <g id="glossary" stroke="none" stroke-width="1" fill="none" fill-rule="evenodd">
        <g id="Mobile-Copy" transform="translate(-19.000000, -89.000000)" fill="#5D5C73">
            <g id="Group" transform="translate(-1.000000, 70.000000)">
                <path d="M20.1649485,25.7079038 C20.1649485,25.652921 20.1099656,25.652921 20.1099656,25.5979381 C20.1099656,25.5429553 20.1099656,25.5429553 20.0549828,25.4879725 C20.0549828,25.4329897 20.0549828,25.4329897 20,25.3780069 C20.0549828,25.2680412 20.0549828,25.1030928 20.0549828,24.9931271 C20.0549828,24.9381443 20.0549828,24.9381443 20.1099656,24.8831615 C20.1099656,24.8281787 20.1099656,24.8281787 20.1649485,24.7731959 C20.1649485,24.7182131 20.2199313,24.7182131 20.2199313,24.6632302 C20.2199313,24.6082474 20.2749141,24.6082474 20.2749141,24.5532646 C20.2749141,24.4982818 20.3298969,24.443299 20.3848797,24.443299 L25.4982818,19.3298969 C25.9381443,18.8900344 26.5979381,18.8900344 27.0378007,19.3298969 C27.4776632,19.7697595 27.4776632,20.4295533 27.0378007,20.8694158 L23.7938144,24.1134021 L34.9003436,24.1134021 C35.5051546,24.1134021 36,24.6082474 36,25.2130584 C36,25.8178694 35.5051546,26.3121649 34.9003436,26.3121649 L23.7938144,26.3121649 L27.0378007,29.556701 C27.4776632,29.9965636 27.4776632,30.6563574 27.0378007,31.0962199 C26.8178694,31.3161512 26.5429553,31.4261168 26.2680412,31.4261168 C25.9931271,31.4261168 25.7182131,31.3161512 25.4982818,31.0962199 L20.3848797,25.9828179 C20.3298969,25.9278351 20.2749141,25.8728522 20.2199313,25.8178694 C20.2199313,25.8178694 20.1649485,25.7623368 20.1649485,25.7079038 Z" id="dark-arrow-back"></path>
            </g>
        </g>
    </g>
</svg>