<?xml version="1.0" encoding="utf-8"?>
<!-- Generator: Adobe Illustrator 19.0.0, SVG Export Plug-In . SVG Version: 6.00 Build 0)  -->
<svg version="1.2" baseProfile="tiny" id="Layer_1" xmlns="http://www.w3.org/2000/svg" xmlns:xlink="http://www.w3.org/1999/xlink"
	 x="0px" y="0px" viewBox="0 0 35 35" xml:space="preserve">
<g id="XMLID_122_">
	<circle id="XMLID_33_" fill="#3D5B94" cx="17.5" cy="17.5" r="17.5"/>
	<g id="XMLID_35_">
		<path id="Facebook" fill="#FFFFFF" d="M15.2,12.3c0,0.4,0,2.3,0,2.3h-1.7v2.9h1.7V26h3.5v-8.5h2.4c0,0,0.2-1.4,0.3-2.9
			c-0.3,0-2.7,0-2.7,0s0-1.7,0-2c0-0.3,0.4-0.7,0.8-0.7c0.4,0,1.2,0,1.9,0c0-0.4,0-1.7,0-3c-1,0-2.1,0-2.6,0
			C15.2,9,15.2,11.8,15.2,12.3z"/>
	</g>
</g>
</svg>
