<?xml version="1.0" encoding="utf-8"?>
<!-- Generator: Adobe Illustrator 19.0.0, SVG Export Plug-In . SVG Version: 6.00 Build 0)  -->
<svg version="1.2" baseProfile="tiny" id="Layer_1" xmlns="http://www.w3.org/2000/svg" xmlns:xlink="http://www.w3.org/1999/xlink"
	 x="0px" y="0px" viewBox="0 0 35 35" xml:space="preserve">
<g id="XMLID_180_">
	<circle id="XMLID_38_" fill="#FF0184" cx="17.5" cy="17.5" r="17.5"/>
	<g id="XMLID_100_">
		<path id="XMLID_105_" fill="#FFFFFF" d="M21.2,8.4h-7.3c-3,0-5.4,2.4-5.4,5.4v7.3c0,3,2.4,5.4,5.4,5.4h7.3c3,0,5.4-2.4,5.4-5.4
			v-7.3C26.6,10.8,24.2,8.4,21.2,8.4z M24.8,21.2c0,2-1.6,3.6-3.6,3.6h-7.3c-2,0-3.6-1.6-3.6-3.6v-7.3c0-2,1.6-3.6,3.6-3.6h7.3
			c2,0,3.6,1.6,3.6,3.6V21.2L24.8,21.2z"/>
		<path id="XMLID_104_" fill="#FFFFFF" d="M17.5,12.8c-2.6,0-4.7,2.1-4.7,4.7s2.1,4.7,4.7,4.7s4.7-2.1,4.7-4.7S20.1,12.8,17.5,12.8z
			 M17.5,20.4c-1.6,0-2.9-1.3-2.9-2.9s1.3-2.9,2.9-2.9c1.6,0,2.9,1.3,2.9,2.9C20.4,19.1,19.1,20.4,17.5,20.4z"/>
		<circle id="XMLID_102_" fill="#FFFFFF" cx="22.2" cy="12.8" r="1.1"/>
	</g>
</g>
</svg>
