<?xml version="1.0" encoding="utf-8"?>
<!-- Generator: Adobe Illustrator 19.0.0, SVG Export Plug-In . SVG Version: 6.00 Build 0)  -->
<svg version="1.2" baseProfile="tiny" id="Layer_1" xmlns="http://www.w3.org/2000/svg" xmlns:xlink="http://www.w3.org/1999/xlink"
	 x="0px" y="0px" viewBox="0 0 26 26" xml:space="preserve">
<g id="XMLID_4630_">
	<circle id="XMLID_4662_" fill="#FFFFFF" cx="13" cy="13" r="13"/>
	<g id="XMLID_4631_">
		<circle id="XMLID_4661_" fill="#B1E092" cx="13" cy="13" r="9.1"/>
		<g id="XMLID_4658_">
			<path id="XMLID_4660_" fill="#FFFFFF" d="M12.5,17.4c-0.3,0-0.5-0.1-0.7-0.3l-3.4-3.2c-0.4-0.4-0.4-1,0-1.4c0.4-0.4,1-0.4,1.4,0
				l2.5,2.4l4.1-5.7c0.3-0.5,1-0.6,1.4-0.2c0.5,0.3,0.6,1,0.2,1.4l-4.8,6.6C13.1,17.2,12.9,17.3,12.5,17.4
				C12.5,17.4,12.5,17.4,12.5,17.4z"/>
		</g>
	</g>
</g>
</svg>
