<svg xmlns="http://www.w3.org/2000/svg" viewBox="0 0 10.5 13.27"><title>repeat</title><g id="Layer_2" data-name="Layer 2"><g id="Layer_1-2" data-name="Layer 1"><path d="M6.53,8.81a.65.65,0,0,0-1,.56v.78H4.77A3.09,3.09,0,0,1,1.68,7.07V5.5A.84.84,0,1,0,0,5.5V7.07a4.77,4.77,0,0,0,4.77,4.77h.79v.78a.65.65,0,0,0,1,.56l2.8-1.62a.65.65,0,0,0,0-1.13Z" style="fill:#04a0ea"/><path d="M5.73,1.43H4.95V.65A.65.65,0,0,0,4,.09L1.17,1.71a.65.65,0,0,0,0,1.13L4,4.46a.65.65,0,0,0,1-.56V3.11h.79A3.09,3.09,0,0,1,8.82,6.2V7.77a.84.84,0,0,0,1.68,0V6.2A4.77,4.77,0,0,0,5.73,1.43Z" style="fill:#04a0ea"/></g></g></svg>