<?xml version="1.0" standalone="no"?>
<!DOCTYPE svg PUBLIC "-//W3C//DTD SVG 20010904//EN"
 "http://www.w3.org/TR/2001/REC-SVG-20010904/DTD/svg10.dtd">
<svg version="1.0" xmlns="http://www.w3.org/2000/svg"
 width="300.000000pt" height="300.000000pt" viewBox="0 0 300.000000 300.000000"
 preserveAspectRatio="xMidYMid meet">
<metadata>
Created by potrace 1.11, written by Peter Selinger 2001-2013
</metadata>
<g transform="translate(0.000000,300.000000) scale(0.100000,-0.100000)"
fill="#000000" stroke="none">
<path d="M1302 2989 c-243 -33 -490 -134 -704 -289 -81 -58 -240 -217 -298
-298 -214 -295 -312 -616 -297 -967 29 -691 514 -1259 1200 -1407 148 -32 446
-32 594 0 601 130 1045 574 1175 1175 32 148 32 446 0 594 -129 599 -577 1048
-1170 1173 -114 24 -385 35 -500 19z m59 -521 c51 -15 114 -69 142 -122 19
-36 22 -60 25 -188 l4 -148 116 0 c138 0 180 -10 229 -53 97 -86 97 -229 -1
-315 -48 -42 -91 -52 -228 -52 l-118 0 0 -246 c0 -207 3 -251 16 -280 21 -45
60 -64 127 -64 104 0 180 -41 227 -123 24 -42 30 -64 30 -115 0 -104 -45 -177
-135 -218 -99 -47 -301 -24 -438 48 -133 71 -246 222 -287 384 -19 73 -20 113
-20 696 0 533 2 624 15 655 51 120 172 179 296 141z"/>
</g>
</svg>
