<?xml version="1.0" encoding="utf-8"?>
<!-- Generator: Adobe Illustrator 19.0.0, SVG Export Plug-In . SVG Version: 6.00 Build 0)  -->
<svg version="1.2" baseProfile="tiny" id="Layer_1" xmlns="http://www.w3.org/2000/svg" xmlns:xlink="http://www.w3.org/1999/xlink"
	 x="0px" y="0px" viewBox="0 0 34 34" xml:space="preserve">
<path id="search-svg" fill="#D9E1E7" d="M33.3,29.8l-6.5-6.5c4.1-5.8,3.6-13.8-1.6-19c-5.8-5.8-15.1-5.8-20.9,0
	c-5.8,5.8-5.8,15.1,0,20.9c2.9,2.9,6.7,4.3,10.4,4.3c3,0,6-0.9,8.5-2.7l6.5,6.5c0.5,0.5,1.1,0.7,1.8,0.7c0.6,0,1.3-0.2,1.8-0.7
	C34.2,32.3,34.2,30.7,33.3,29.8z M7.8,21.7C4,17.9,4,11.6,7.8,7.8C9.7,5.9,12.2,5,14.8,5c2.5,0,5,1,6.9,2.9c3.8,3.8,3.8,10,0,13.8
	C17.9,25.5,11.6,25.5,7.8,21.7z"/>
</svg>
