<?xml version="1.0" encoding="utf-8"?>
<!-- Generator: Adobe Illustrator 19.0.0, SVG Export Plug-In . SVG Version: 6.00 Build 0)  -->
<svg version="1.1" id="Layer_1" xmlns="http://www.w3.org/2000/svg" xmlns:xlink="http://www.w3.org/1999/xlink" x="0px" y="0px"
	 viewBox="-482 484 34 34" style="enable-background:new -482 484 34 34;" xml:space="preserve">
<style type="text/css">
	.st0{fill:#5E5C74;}
</style>
<path id="search-svg" class="st0" d="M-448.7,513.8l-6.5-6.5c4.1-5.8,3.6-13.8-1.6-19c-5.8-5.8-15.1-5.8-20.9,0
	c-5.8,5.8-5.8,15.1,0,20.9c2.9,2.9,6.7,4.3,10.4,4.3c3,0,6-0.9,8.5-2.7l6.5,6.5c0.5,0.5,1.1,0.7,1.8,0.7c0.6,0,1.3-0.2,1.8-0.7
	C-447.8,516.3-447.8,514.7-448.7,513.8z M-474.2,505.7c-3.8-3.8-3.8-10.1,0-13.9c1.9-1.9,4.4-2.8,7-2.8c2.5,0,5,1,6.9,2.9
	c3.8,3.8,3.8,10,0,13.8C-464.1,509.5-470.4,509.5-474.2,505.7z"/>
</svg>
