<svg xmlns="http://www.w3.org/2000/svg" viewBox="0 0 172 32"><title>stars</title><g id="Layer_2" data-name="Layer 2"><g id="Layer_1-2" data-name="Layer 1"><path d="M0,0V32H172V0ZM27.08,13.93l-4.24,4.14A4.42,4.42,0,0,0,21.56,22l1,5.84A1.07,1.07,0,0,1,21,29L15.76,26.2a4.42,4.42,0,0,0-4.11,0L6.4,29a1.07,1.07,0,0,1-1.56-1.13l1-5.84a4.42,4.42,0,0,0-1.27-3.91L.33,13.93a1.07,1.07,0,0,1,.6-1.83l5.87-.85a4.42,4.42,0,0,0,3.33-2.42l2.62-5.32a1.07,1.07,0,0,1,1.93,0l2.62,5.32a4.42,4.42,0,0,0,3.33,2.42l5.87.85A1.07,1.07,0,0,1,27.08,13.93Zm36.15,0L59,18.07A4.42,4.42,0,0,0,57.71,22l1,5.84A1.07,1.07,0,0,1,57.16,29L51.91,26.2a4.42,4.42,0,0,0-4.11,0L42.55,29A1.07,1.07,0,0,1,41,27.83L42,22a4.42,4.42,0,0,0-1.27-3.91l-4.24-4.14a1.07,1.07,0,0,1,.6-1.83l5.87-.85a4.42,4.42,0,0,0,3.33-2.42l2.62-5.32a1.07,1.07,0,0,1,1.93,0l2.62,5.32a4.42,4.42,0,0,0,3.33,2.42l5.87.85A1.07,1.07,0,0,1,63.23,13.93Zm36.15,0-4.24,4.14A4.42,4.42,0,0,0,93.86,22l1,5.84A1.07,1.07,0,0,1,93.3,29L88.06,26.2a4.42,4.42,0,0,0-4.11,0L78.7,29a1.07,1.07,0,0,1-1.56-1.13l1-5.84a4.42,4.42,0,0,0-1.27-3.91l-4.24-4.14a1.07,1.07,0,0,1,.6-1.83l5.87-.85a4.42,4.42,0,0,0,3.33-2.42L85,3.51a1.07,1.07,0,0,1,1.93,0l2.62,5.32a4.42,4.42,0,0,0,3.33,2.42l5.87.85A1.07,1.07,0,0,1,99.38,13.93Zm36.15,0-4.24,4.14A4.42,4.42,0,0,0,130,22l1,5.84A1.07,1.07,0,0,1,129.45,29l-5.25-2.76a4.42,4.42,0,0,0-4.11,0L114.84,29a1.07,1.07,0,0,1-1.56-1.13l1-5.84A4.42,4.42,0,0,0,113,18.07l-4.24-4.14a1.07,1.07,0,0,1,.6-1.83l5.87-.85a4.42,4.42,0,0,0,3.33-2.42l2.62-5.32a1.07,1.07,0,0,1,1.93,0l2.62,5.32a4.42,4.42,0,0,0,3.33,2.42l5.87.85A1.07,1.07,0,0,1,135.53,13.93Zm36.15,0-4.24,4.14A4.42,4.42,0,0,0,166.16,22l1,5.84A1.07,1.07,0,0,1,165.6,29l-5.25-2.76a4.42,4.42,0,0,0-4.11,0L151,29a1.07,1.07,0,0,1-1.56-1.13l1-5.84a4.42,4.42,0,0,0-1.27-3.91l-4.24-4.14a1.07,1.07,0,0,1,.6-1.83l5.87-.85a4.42,4.42,0,0,0,3.33-2.42l2.62-5.32a1.07,1.07,0,0,1,1.93,0l2.62,5.32a4.42,4.42,0,0,0,3.33,2.42l5.87.85A1.07,1.07,0,0,1,171.67,13.93Z" style="fill:#fff"/></g></g></svg>