<?xml version="1.0" encoding="utf-8"?>
<!-- Generator: Adobe Illustrator 19.0.0, SVG Export Plug-In . SVG Version: 6.00 Build 0)  -->
<svg version="1.2" baseProfile="tiny" id="Layer_1" xmlns="http://www.w3.org/2000/svg" xmlns:xlink="http://www.w3.org/1999/xlink"
	 x="0px" y="0px" viewBox="0 0 35 35" xml:space="preserve">
<g id="XMLID_126_">
	<circle id="XMLID_37_" fill="#4472A3" cx="17.5" cy="17.5" r="17.5"/>
	<g id="XMLID_28_">
		<path id="XMLID_41_" fill="#FFFFFF" d="M24.5,19.8c0.7,0.7,1.4,1.3,2,2c0.3,0.3,0.5,0.7,0.7,1c0.3,0.5,0,1.1-0.5,1.2l-3,0
			c-0.8,0.1-1.4-0.2-1.9-0.8c-0.4-0.4-0.8-0.9-1.2-1.3c-0.2-0.2-0.3-0.3-0.5-0.5c-0.4-0.3-0.8-0.2-1,0.2c-0.2,0.4-0.3,0.9-0.3,1.4
			c0,0.7-0.2,0.9-1,0.9c-1.5,0.1-3-0.2-4.3-0.9c-1.2-0.7-2.1-1.6-2.9-2.7C9,18.3,7.8,16,6.7,13.6c-0.2-0.5-0.1-0.8,0.5-0.8
			c1,0,2,0,3,0c0.4,0,0.7,0.2,0.8,0.6c0.5,1.3,1.2,2.6,2,3.7c0.2,0.3,0.4,0.6,0.8,0.8c0.3,0.2,0.6,0.2,0.8-0.2
			c0.1-0.2,0.2-0.5,0.2-0.8c0.1-0.9,0.1-1.8,0-2.7c-0.1-0.6-0.4-0.9-1-1c-0.3-0.1-0.2-0.2-0.1-0.3c0.2-0.3,0.5-0.5,0.9-0.5H18
			c0.5,0.1,0.7,0.3,0.7,0.9l0,3.8c0,0.2,0.1,0.8,0.5,1c0.3,0.1,0.5-0.1,0.7-0.3c0.8-0.9,1.4-1.9,1.9-3c0.2-0.5,0.4-1,0.6-1.4
			c0.1-0.4,0.4-0.5,0.8-0.5l3.3,0c0.1,0,0.2,0,0.3,0c0.6,0.1,0.7,0.3,0.5,0.9c-0.3,0.8-0.8,1.6-1.3,2.3c-0.5,0.8-1.1,1.5-1.7,2.3
			C23.8,18.9,23.8,19.2,24.5,19.8L24.5,19.8z"/>
	</g>
</g>
</svg>
