<svg xmlns="http://www.w3.org/2000/svg" viewBox="0 0 27.54 26.3"><title>yellowstrar</title><g id="Layer_2" data-name="Layer 2"><g id="Layer_1-2" data-name="Layer 1"><path d="M14.74.6l2.64,5.34a4.44,4.44,0,0,0,3.35,2.43l5.9.86a1.08,1.08,0,0,1,.6,1.84L23,15.23a4.44,4.44,0,0,0-1.28,3.93l1,5.87a1.08,1.08,0,0,1-1.57,1.14L15.84,23.4a4.44,4.44,0,0,0-4.13,0L6.43,26.18A1.08,1.08,0,0,1,4.86,25l1-5.87a4.44,4.44,0,0,0-1.28-3.93L.33,11.07a1.08,1.08,0,0,1,.6-1.84l5.9-.86a4.44,4.44,0,0,0,3.35-2.43L12.8.6A1.08,1.08,0,0,1,14.74.6Z" style="fill:#ffc257"/></g></g></svg>